<svg xmlns="http://www.w3.org/2000/svg" xmlns:xlink="http://www.w3.org/1999/xlink" viewBox="0 0 48 48" id="empty-mailbox">
  <defs>
    <linearGradient id="b" x1="1" x2="32" y1="24" y2="24" gradientUnits="userSpaceOnUse">
      <stop offset="0" stop-color="#54a5ff"></stop>
      <stop offset="1" stop-color="#8ad3fe"></stop>
    </linearGradient>
    <linearGradient id="a" x1="16" x2="9" y1="12" y2="12" gradientUnits="userSpaceOnUse">
      <stop offset="0" stop-color="#fe9661"></stop>
      <stop offset="1" stop-color="#ffb369"></stop>
    </linearGradient>
    <linearGradient id="c" x1="16" x2="16" y1="24" y2="7" gradientUnits="userSpaceOnUse">
      <stop offset="0" stop-color="#d3e6f5"></stop>
      <stop offset="1" stop-color="#f0f7fc"></stop>
    </linearGradient>
    <linearGradient xlink:href="#a" id="d" x1="18" x2="18" y1="37" y2="41"></linearGradient>
    <linearGradient xlink:href="#a" id="e" x1="18" x2="18" y1="41" y2="47"></linearGradient>
    <linearGradient xlink:href="#b" id="f" x1="23" x2="47" y1="36" y2="36"></linearGradient>
    <linearGradient xlink:href="#c" id="g" y1="27" y2="21"></linearGradient>
    <linearGradient xlink:href="#a" id="h" x1="3" y1="29" y2="29"></linearGradient>
    <linearGradient xlink:href="#a" id="i" x1="43" x2="39" y1="6" y2="6"></linearGradient>
  </defs>
  <g>
    <path fill="url(#b)" d="M10,11H32a0,0,0,0,1,0,0V37a0,0,0,0,1,0,0H3a2,2,0,0,1-2-2V20A9,9,0,0,1,10,11Z"></path>
    <path fill="url(#a)" d="M10,9h6a0,0,0,0,1,0,0v6a0,0,0,0,1,0,0H10a1,1,0,0,1-1-1V10A1,1,0,0,1,10,9Z"></path>
    <path fill="url(#c)" d="M17,24H15V8a1,1,0,0,1,2,0Z"></path>
    <path fill="#b4cde1" d="M41,37H23V20a9,9,0,0,1,18,0Z"></path>
    <path fill="url(#d)" d="M10,37H26a0,0,0,0,1,0,0v3a1,1,0,0,1-1,1H11a1,1,0,0,1-1-1V37A0,0,0,0,1,10,37Z"></path>
    <rect width="8" height="6" x="14" y="41" fill="url(#e)"></rect>
    <path fill="url(#f)" d="M46,35H23v2H46a1,1,0,0,0,0-2Z"></path>
    <circle cx="16" cy="24" r="3" fill="url(#g)"></circle>
    <circle cx="16" cy="24" r="1" fill="#b4cde1"></circle>
    <path fill="#4795ea" d="M1,33H23a0,0,0,0,1,0,0v4a0,0,0,0,1,0,0H3a2,2,0,0,1-2-2V33A0,0,0,0,1,1,33Z"></path>
    <rect width="6" height="4" x="3" y="27" fill="url(#h)" rx="1"></rect>
    <path fill="#4795ea" d="M8,25H4a1,1,0,0,1,0-2H8a1,1,0,0,1,0,2Z"></path>
    <path fill="#d7e9f7" d="M44.53,4.71C43.63,3.64,42,2.84,41,3.78c-1-.93-2.6-.16-3.53.93C36.4,6,36.22,7.58,37.06,8.29s2.4.27,3.47-1c.78-.93.16-.93.94,0,1.07,1.27,2.62,1.71,3.47,1S45.6,6,44.53,4.71Z"></path>
    <ellipse cx="41" cy="6" fill="url(#i)" rx="2" ry="3"></ellipse>
    <path fill="#d7e9f7" d="M38.5,29H32a1,1,0,0,1,0-2h6.5a4.5,4.5,0,0,0,2.74-8.07l-.05.4A3.1,3.1,0,1,1,38,16a8.94,8.94,0,0,1,1.54.08L40,11.89a1,1,0,1,1,2,.22l-.51,4.61A6.5,6.5,0,0,1,38.5,29ZM38,18a1,1,0,0,0,0,2h.21a1,1,0,0,0,1-.89l.12-1A7.11,7.11,0,0,0,38,18Z"></path>
  </g>
</svg>
